HIERARCHY
ROOT Hips
{
	OFFSET 0.000000 0.000000 0.000000 
	CHANNELS 6 Xposition Yposition Zposition Yrotation Zrotation Xrotation 
	JOINT Lumbar
	{
		OFFSET 0.000000 0.000000 0.000000 
		CHANNELS 3 Zrotation Xrotation Yrotation
		JOINT Neck
		{
			OFFSET 0.000000 0.445665 0.000000 
			CHANNELS 3 Zrotation Xrotation Yrotation
			End Site
			{
				OFFSET 0.000000 0.227535 0.000000 
			}
		}
		JOINT RightShoulder
		{
			OFFSET 0.019635 0.377685 0.194865 
			CHANNELS 3 Zrotation Xrotation Yrotation
			JOINT RightElbow
			{
				OFFSET 0.000000 -0.243375 0.000000 
				CHANNELS 2 Zrotation Yrotation
				JOINT RightWrist
				{
					OFFSET 0.000000 -0.264825 0.000000 
					CHANNELS 2 Zrotation Xrotation
					End Site
					{
						OFFSET 0.006600 -0.176220 0.000990 
					}
				}
			}
		}
		JOINT LeftShoulder
		{
			OFFSET 0.019635 0.377685 -0.194865 
			CHANNELS 3 Zrotation Xrotation Yrotation
			JOINT LeftElbow
			{
				OFFSET 0.000000 -0.243375 0.000000 
				CHANNELS 2 Zrotation Yrotation
				JOINT LeftWrist
				{
					OFFSET 0.000000 -0.264825 0.000000 
					CHANNELS 2 Zrotation Xrotation
					End Site
					{
						OFFSET 0.006600 -0.176220 -0.000990 
					}
				}
			}
		}
	}
	JOINT RightHip
	{
		OFFSET 0.052140 -0.069960 0.075570 
		CHANNELS 3 Zrotation Xrotation Yrotation
		JOINT RightKnee
		{
			OFFSET 0.000000 -0.402270 0.000000 
			CHANNELS 1 Zrotation
			JOINT RightAnkle
			{
				OFFSET 0.000000 -0.404085 0.000000 
				CHANNELS 3 Zrotation Xrotation Yrotation
				End Site
				{
					OFFSET 0.204105 -0.089430 0.008415 
				}
			}
		}
	}
	JOINT LeftHip
	{
		OFFSET 0.052140 -0.069960 -0.075570 
		CHANNELS 3 Zrotation Xrotation Yrotation
		JOINT LeftKnee
		{
			OFFSET 0.000000 -0.402270 0.000000 
			CHANNELS 1 Zrotation
			JOINT LeftAnkle
			{
				OFFSET 0.000000 -0.404085 0.000000 
				CHANNELS 3 Zrotation Xrotation Yrotation
				End Site
				{
					OFFSET 0.204105 -0.089430 -0.008415 
				}
			}
		}
	}
}
MOTION
Frames: 11
Frame Time: 0.02
0 0.95578 1e-05 172.86307 0 -5.80757 12.16218 7.69722 0.3244 -27.28425 0.80172 0.48402 20.08779 -15.36731 4.99411 7.85743 82.59959 1.093 -1.37636 21.74036 15.9161 -20.17663 13.35799 -82.86896 1.90408 1.83996 -2.24007 6.8048 -0.32315 -8.47002 -11.4533 -2.62877 -10.04869 -7.10218 9.50597 18.75354 -4.35038 -3.65185 3.67112 8.18024
-0.00013 0.95558 -0.00111 172.40167 0 -5.84199 11.96681 7.86401 0.26259 -27.32467 0.73605 0.48595 20.02546 -15.14255 4.42376 7.93402 82.4581 0.80974 -1.44213 21.67674 16.00538 -20.58869 12.86335 -82.86399 1.61841 1.62826 -2.00252 6.91769 0.15961 -8.86028 -11.17491 -2.6498 -10.30542 -7.49792 9.48266 19.01554 -3.8003 -3.8676 3.65387 8.15754
-0.00025 0.95537 -0.00224 171.94344 0 -5.87624 11.77156 8.02906 0.1993 -27.36664 0.67207 0.48728 19.96568 -14.9188 3.85946 8.01124 82.31719 0.52715 -1.50826 21.61405 16.09352 -20.99113 12.37111 -82.85823 1.33303 1.41806 -1.76667 7.03113 0.64099 -9.24826 -10.89849 -2.67113 -10.56179 -7.89128 9.46072 19.27656 -3.25373 -4.08251 3.63642 8.13411
-0.00038 0.95516 -0.00342 171.49319 0 -5.90998 11.5766 8.18891 0.12965 -27.41478 0.61368 0.48441 19.91609 -14.69618 3.3134 8.09064 82.17751 0.2472 -1.57381 21.55338 16.17744 -21.36064 11.88182 -82.8491 1.04487 1.21038 -1.5344 7.14562 1.11089 -9.63228 -10.62459 -2.69266 -10.80938 -8.27975 9.44241 19.53522 -2.71438 -4.29604 3.6182 8.10837
-0.00051 0.95496 -0.00433 171.0004 0 -5.94625 11.3822 8.3765 0.09389 -27.42976 0.52507 0.50157 19.81325 -14.46669 2.67029 8.1572 82.03166 -0.04344 -1.63925 21.48066 16.28309 -21.90658 11.3747 -82.85762 0.77003 0.98765 -1.28212 7.25186 1.62886 -10.03891 -10.33419 -2.71169 -11.0917 -8.69507 9.40289 19.80522 -2.13504 -4.51672 3.60427 8.09585
-0.00064 0.95474 -0.00583 170.59826 0 -5.97721 11.18537 8.5051 -0.01366 -27.51519 0.50089 0.47787 19.82265 -14.25258 2.23339 8.25173 81.89876 -0.31342 -1.707 21.43442 16.34309 -22.07745 10.90727 -82.82892 0.46825 0.79813 -1.0731 7.37724 2.05327 -10.3962 -10.08113 -2.73698 -11.30827 -9.05256 9.40959 20.05177 -1.64204 -4.72214 3.58114 8.05471
-0.00084 0.95447 -0.00895 170.44361 0 -5.99306 10.98779 8.46951 -0.32846 -27.8021 0.65671 0.32341 20.15811 -14.07152 2.37148 8.42154 81.80149 -0.51265 -1.76466 21.45515 16.27082 -21.18748 10.52807 -82.69175 0.07284 0.68835 -0.97647 7.54555 2.14584 -10.63117 -9.90954 -2.77228 -11.27292 -9.25934 9.53797 20.23043 -1.37333 -4.88902 3.53246 7.93648
-0.00104 0.95418 -0.0127 170.38122 0 -6.00356 10.78628 8.37462 -0.71432 -28.15933 0.87731 0.13057 20.60451 -13.90764 2.71633 8.62001 81.71725 -0.69346 -1.82727 21.50399 16.15364 -19.92067 10.19243 -82.51783 -0.34671 0.61404 -0.92481 7.73492 2.15547 -10.81376 -9.77917 -2.8151 -11.18238 -9.40598 9.71429 20.38557 -1.19451 -5.03997 3.47454 7.78911
-0.00122 0.95389 -0.0162 170.27782 0 -6.0169 10.58261 8.30756 -1.06238 -28.48003 1.06721 -0.03291 20.98983 -13.74167 2.96395 8.80703 81.62694 -0.89227 -1.89899 21.54368 16.06081 -18.84374 9.85032 -82.36429 -0.74314 0.53129 -0.85692 7.92166 2.25367 -11.01184 -9.6442 -2.85952 -11.16505 -9.57501 9.87271 20.55451 -0.9829 -5.19614 3.42075 7.6533
-0.00148 0.95361 -0.01953 170.16901 0 -6.02881 10.39623 8.23651 -1.43411 -28.81934 1.26266 -0.24563 21.41918 -13.55115 3.22774 8.98793 81.53707 -1.05166 -1.92468 21.56707 15.95089 -17.69577 9.45212 -82.19548 -1.19063 0.41666 -0.77084 8.08021 2.14574 -11.24604 -9.45078 -2.88356 -10.95171 -9.76629 10.01458 20.71284 -0.73557 -5.36104 3.36692 7.52357
-0.00156 0.95332 -0.02337 170.09534 0 -6.04206 10.17214 8.15999 -1.77282 -29.13743 1.4616 -0.3662 21.78432 -13.4164 3.50396 9.18771 81.44966 -1.28721 -2.045 21.63231 15.86649 -16.59686 9.18099 -82.04947 -1.53773 0.37621 -0.73389 8.30108 2.4366 -11.39124 -9.3874 -2.95084 -11.12458 -9.89515 10.20245 20.88451 -0.5862 -5.50368 3.31138 7.37553
